<svg width="1440" height="750" xmlns="http://www.w3.org/2000/svg">

 <g>
  <title>Layer 1</title>
  <ellipse ry="5.9322" rx="5.9322" id="svg_3" cy="32.83292" cx="1318.86194" stroke="#6D97AB" fill="#6D97AB"/>
  <ellipse ry="2.0339" rx="2.0339" id="svg_4" cy="14.69733" cx="1345.47211" stroke="#6D97AB" fill="#6D97AB"/>
  <ellipse stroke="#6D97AB" ry="2.94237" rx="3.11186" id="svg_5" cy="48.48716" cx="1360.1094" fill="#6D97AB"/>
  <ellipse ry="4.66667" rx="4" id="svg_6" cy="65.98094" cx="1399.08567" stroke="#6D97AB" fill="#6D97AB"/>
  <ellipse ry="1.33333" rx="1.2" id="svg_7" cy="85.54284" cx="1191.219" stroke="#6D97AB" fill="#6D97AB"/>
  <ellipse ry="1.73333" rx="1.73333" id="svg_8" cy="12.83808" cx="1278.09519" stroke="#6D97AB" fill="#6D97AB"/>
  <ellipse ry="2.26667" rx="2.4" id="svg_9" cy="57.16189" cx="1246.07614" stroke="#6D97AB" fill="#6D97AB"/>
  <ellipse ry="0.4" rx="0.53333" id="svg_10" cy="78.09522" cx="1249.00948" stroke="#6D97AB" fill="#6D97AB"/>
  <ellipse ry="0.8" rx="0.8" id="svg_11" cy="66.72379" cx="1314.70471" stroke="#6D97AB" fill="#6D97AB"/>
  <ellipse ry="6.26667" rx="6" id="svg_12" cy="24.30475" cx="1363.92377" stroke="#1A333F" fill="#0E353B"/>
  <ellipse ry="1.2" rx="1.2" id="svg_13" cy="43.84761" cx="1344.019" stroke="#1A333F" fill="#0E353B"/>
  <ellipse ry="0.8" rx="0.8" id="svg_14" cy="65.27617" cx="1190.819" stroke="#1A333F" fill="#0E353B"/>
  <ellipse ry="0.66667" rx="0.53333" id="svg_15" cy="16.57142" cx="1284.09519" stroke="#1A333F" fill="#0E353B"/>
  <ellipse ry="0.75" rx="0.66666" id="svg_16" cy="11.06707" cx="1278.92552" stroke="#1A333F" fill="#0E353B"/>
  <ellipse ry="2" rx="2" id="svg_17" cy="45.71428" cx="1362.36648" stroke="#1A333F" fill="#0E353B"/>
  <ellipse id="svg_18" cy="15.71428" cx="1395.90183" stroke="#1A333F" fill="#0E353B"/>
  <ellipse ry="0.50505" rx="0.50505" id="svg_19" cy="29.14862" cx="1394.79072" stroke="#1A333F" fill="#0E353B"/>
  <ellipse id="svg_21" cy="79.85073" cx="1186.07672" stroke="#1A333F" fill="#0E353B"/>
  <ellipse stroke="#000000" ry="18.35821" rx="17.31343" id="svg_22" cy="6.97227" cx="1425.07458" fill="#000000"/>
  <ellipse ry="2.53731" rx="2.68657" id="svg_23" cy="16.75905" cx="1379.95731" stroke="#000000" fill="#000000"/>
  <ellipse ry="6.41791" rx="6.56716" id="svg_24" cy="39.9147" cx="1257.84643" stroke="#000000" fill="#000000"/>
  <ellipse ry="1.9403" rx="1.9403" id="svg_25" cy="51.57781" cx="1196.24729" stroke="#000000" fill="#000000"/>
  <ellipse ry="1.64179" rx="1.64179" id="svg_26" cy="68.44348" cx="1219.82938" stroke="#000000" fill="#000000"/>
  <ellipse stroke="#000000" ry="0.74627" rx="0.67164" id="svg_27" cy="63.15562" cx="1316.4072" fill="#000000"/>
  <ellipse ry="5.8209" rx="5.52239" id="svg_28" cy="49.29637" cx="1393.83791" stroke="#B6C7EA" fill="#B6C7EA"/>
  <ellipse ry="2.68657" rx="2.38806" id="svg_29" cy="57.5906" cx="1170.70358" stroke="#B6C7EA" fill="#B6C7EA"/>
  <ellipse ry="1.9403" rx="1.9403" id="svg_30" cy="27.20681" cx="1323.68865" stroke="#B6C7EA" fill="#B6C7EA"/>
  <ellipse ry="1.34328" rx="1.49254" id="svg_31" cy="43.2196" cx="1226.24729" stroke="#B6C7EA" fill="#B6C7EA"/>
  <ellipse ry="0.74627" rx="0.74627" id="svg_33" cy="61.13005" cx="1278.93385" stroke="#B6C7EA" fill="#B6C7EA"/>
  <ellipse ry="0.44776" rx="0.44776" id="svg_34" cy="11.50318" cx="1303.96584" stroke="#B6C7EA" fill="#EDFFFF"/>
  <ellipse id="svg_35" cy="46.30062" cx="1317.61189" stroke="#B6C7EA" fill="#EDFFFF"/>
 </g>
</svg>